# AST/ASF file generated using VICON BodyLanguage
# -----------------------------------------------
:version 1.10
:name VICON
:units
  mass 1.0
  length 0.45
  angle deg
:documentation
   .ast/.asf automatically generated from VICON data using
   VICON BodyBuilder and BodyLanguage model FoxedUp or BRILLIANT.MOD
:root
   order TX TY TZ RX RY RZ
   axis XYZ
   position 0 0 0  
   orientation 0 0 0 
:bonedata
  begin
     id 1 
     name lhipjoint
     direction 0.690799 -0.707083 0.151096 
     length 2.54797 
     axis 0 0 0  XYZ
  end
  begin
     id 2 
     name lfemur
     direction 0.34202 -0.939693 0  
     length 7.21646  
     axis 0 0 20  XYZ
    dof rx ry rz
    limits (-160.0 20.0)
           (-70.0 70.0)
           (-60.0 70.0)
  end
  begin
     id 3 
     name ltibia
     direction 0.34202 -0.939693 0   
     length 8.16759   
     axis 0 0 20   XYZ
    dof rx
    limits (-10.0 170.0)
  end
  begin
     id 4 
     name lfoot
     direction 0.0487203 -0.133858 0.989802   
     length 1.93375   
     axis -90 7.62852e-016 20   XYZ
    dof rx rz
    limits (-45.0 90.0)
           (-70.0 20.0)
  end
  begin
     id 5 
     name ltoes
     direction 1.53453e-011 -4.21783e-011 1   
     length 0.979747   
     axis -90 7.62852e-016 20   XYZ
    dof rx
    limits (-90.0 20.0)
  end
  begin
     id 6 
     name rhipjoint
     direction -0.694693 -0.703425 0.150315   
     length 2.56122  
     axis 0 0 0  XYZ 
  end
  begin
     id 7 
     name rfemur
     direction -0.34202 -0.939693 0   
     length 7.36786   
     axis 0 0 -20   XYZ
    dof rx ry rz
    limits (-160.0 20.0)
           (-70.0 70.0)
           (-70.0 60.0)
  end
  begin
     id 8 
     name rtibia
     direction -0.34202 -0.939693 0   
     length 8.07288   
     axis 0 0 -20   XYZ
    dof rx
    limits (-10.0 170.0)
 end
 begin
     id 9 
     name rfoot
     direction -0.0428397 -0.117701 0.992125   
     length 1.88295  
     axis -90 -7.62852e-016 -20   XYZ
    dof rx rz
    limits (-45.0 90.0)
           (-20.0 70.0)
  end
  begin
     id 10 
     name rtoes
     direction -1.53456e-011 -4.2187e-011 1   
     length 0.955578   
     axis -90 -7.62852e-016 -20   XYZ
    dof rx
    limits (-90.0 20.0)
  end
  begin
     id 11 
     name lowerback
     direction 0.0288145 0.999398 -0.0193241   
     length 1.92149   
     axis 0 0 0   XYZ
    dof rx ry rz
    limits (-20.0 45.0)
           (-30.0 30.0)
           (-30.0 30.0)
  end
  begin
     id 12 
     name upperback
     direction 0.0233784 0.998099 0.0570278   
     length 1.90435   
     axis 0 0 0   XYZ
    dof rx ry rz
    limits (-20.0 45.0)
           (-30.0 30.0)
           (-30.0 30.0)
  end
  begin
     id 13 
     name thorax
     direction 0.0096694 0.997833 0.0650817   
     length 1.9111   
     axis 0 0 0   XYZ
    dof rx ry rz
    limits (-20.0 45.0)
           (-30.0 30.0)
           (-30.0 30.0)
  end
  begin
     id 14 
     name lowerneck
     direction 0.00516803 0.999916 0.0118722   
     length 1.74664   
     axis 0 0 0   XYZ
    dof rx ry rz
    limits (-20.0 45.0)
           (-30.0 30.0)
           (-30.0 30.0)
  end
  begin
     id 15 
     name upperneck
     direction -0.0510851 0.996117 -0.071696   
     length 1.68498   
     axis 0 0 0   XYZ
    dof rx ry rz
    limits (-20.0 45.0)
           (-30.0 30.0)
           (-30.0 30.0)
  end
  begin
     id 16
     name head
     direction -0.019188 0.999436 -0.0275702  
     length 1.83483  
     axis 0 0 0   XYZ
    dof rx ry rz
    limits (-20.0 45.0)
           (-30.0 30.0)
           (-30.0 30.0)
  end
  begin
     id 17 
     name lclavicle
     direction 0.967006 0.248456 -0.0562957  
     length 3.39395  
     axis 0 0 0   XYZ
    dof ry rz
    limits (-20.0 10.0)
           (0.0 20.0)
  end
  begin
     id 18 
     name lhumerus
     direction 1 -4.48962e-011 -5.62711e-019   
     length 5.24318   
     axis 180 -30 -90   XYZ
    dof rx ry rz
    limits (-60.0 90.0)
           (-90.0 90.0)
           (-90.0 90.0)
  end
  begin
     id 19
     name lradius
     direction 1 -4.48966e-011 7.90625e-027   
     length 2.98999   
     axis 180 -30 -90   XYZ
    dof rx
    limits (-10.0 170.0)
  end
  begin
     id 20
     name lwrist
     direction 1 -4.48959e-011 1.61068e-026   
     length 1.49499   
     axis -9.31229e-015 90 90   XYZ
    dof ry
    limits (-180.0 0.0)
 end
  begin
     id 21 
     name lhand
     direction 1 -4.49017e-011 3.22136e-026   
     length 0.726745   
     axis -2.0555e-014 90 90   XYZ
    dof rx rz
    limits (-90.0 90.0)
           (-45.0 45.0)
  end
  begin
     id 22 
     name lfingers
     direction 1 -4.4898e-011 6.44272e-026   
     length 0.58592   
     axis -4.11101e-014 90 90   XYZ
    dof rx
    limits (0.0 90.0)
  end
  begin
     id 23
     name lthumb
     direction 0.707107 -6.34922e-011 0.707107   
     length 0.841268   
     axis -90 45 2.85299e-015   XYZ
    dof rx rz
    limits (-45.0 45.0)
           (-45.0 45.0)
  end
  begin
     id 24 
     name rclavicle
     direction -0.972232 0.230238 0.0419005   
     length 3.40416  
     axis 0 0 0   XYZ 
    dof ry rz
    limits (-10.0 20.0)
           (-20.0 0.0)
  end
  begin
     id 25 
     name rhumerus
     direction -1 -4.48976e-011 2.48487e-027  
     length 5.37045   
     axis 180 30 90   XYZ
    dof rx ry rz
    limits (-90.0 60.0)
           (-90.0 90.0)
           (-90.0 90.0)
  end
  begin
     id 26 
     name rradius
     direction -1 -4.48942e-011 7.87951e-027   
     length 2.92792   
     axis 180 30 90   XYZ
    dof rx
    limits (-10.0 170.0)
  end
  begin
     id 27 
     name rwrist
     direction -1 -4.48969e-011 1.61068e-026   
     length 1.46396   
     axis -9.31229e-015 -90 -90   XYZ
    dof ry
    limits (-180.0 0.0)
  end
  begin
     id 28
     name rhand
     direction -1 -4.49043e-011 3.22136e-026   
     length 0.784497   
     axis -2.0555e-014 -90 -90   XYZ
    dof rx rz
    limits (-90.0 90.0)
           (-45.0 45.0)
  end
  begin
     id 29
     name rfingers
     direction -1 -4.48823e-011 6.44272e-026   
     length 0.632482   
     axis -4.11101e-014 -90 -90   XYZ
    dof rx
    limits (0.0 90.0)
  end
  begin
     id 30
     name rthumb
     direction -0.707107 -6.34923e-011 0.707107   
     length 0.908121   
     axis -90 -45 -2.85299e-015   XYZ
    dof rx rz
    limits (-45.0 45.0)
           (-45.0 45.0)
  end
:hierarchy
  begin
    root lhipjoint rhipjoint lowerback
    lhipjoint lfemur
    lfemur ltibia
    ltibia lfoot
    lfoot ltoes
    rhipjoint rfemur
    rfemur rtibia
    rtibia rfoot
    rfoot rtoes
    lowerback upperback
    upperback thorax
    thorax lowerneck lclavicle rclavicle
    lowerneck upperneck
    upperneck head
    lclavicle lhumerus
    lhumerus lradius
    lradius lwrist
    lwrist lhand lthumb
    lhand lfingers
    rclavicle rhumerus
    rhumerus rradius
    rradius rwrist
    rwrist rhand rthumb
    rhand rfingers
  end

#!OML:ASF E:\Style6\Style6.ASF
:FULLY-SPECIFIED
:DEGREES
1956
root 0.788039 17.2992 -1.42267 27.1347 -17.2621 7.85853
lowerback 15.573 -2.77219 1.90478
upperback 11.129 -3.60265 8.42843
thorax 3.71314 -2.11765 8.41888
lowerneck 10.5182 9.56881 -3.25383
upperneck 14.71 12.3619 -3.53438
head 3.06867 5.77262 -0.676312
rclavicle -7.95139e-015 -3.10104e-014
rhumerus 18.3586 7.33905 -72.8366
rradius 32.5001
rwrist 30.9347
rhand -3.29313 8.26387
rfingers 7.12502
rthumb 22.4326 -20.4534
lclavicle -7.95139e-015 -3.10104e-014
lhumerus 81.7599 -28.7918 34.5677
lradius 27.3831
lwrist -8.37556
lhand 3.94857 20.0675
lfingers 7.12502
lthumb 29.3666 47.7676
rfemur -61.4828 -1.98637 9.59931
rtibia 40.6007
rfoot -3.07474 -0.0131551
rtoes -18.7336
lfemur -52.7841 11.603 -35.6413
ltibia 37.1209
lfoot -8.27426 3.82083
ltoes -18.6416
1957
root 0.790351 17.2973 -1.42228 27.1362 -17.3617 7.87313
lowerback 15.587 -2.7597 2.05112
upperback 11.1503 -3.57059 8.36431
thorax 3.70882 -2.08957 8.25858
lowerneck 10.7234 9.57503 -3.14455
upperneck 14.4999 12.3483 -3.44756
head 2.96062 5.78153 -0.681084
rclavicle -6.52014e-014 9.30312e-014
rhumerus 18.3231 7.08493 -72.9756
rradius 32.4745
rwrist 31.2044
rhand -3.50656 8.48894
rfingers 7.12502
rthumb 22.2277 -20.2529
lclavicle -6.52014e-014 9.30312e-014
lhumerus 82.0771 -28.9837 33.8603
lradius 27.4796
lwrist -8.12927
lhand 4.01 20.0246
lfingers 7.12502
lthumb 29.4252 47.7144
rfemur -61.5406 -1.90635 9.52384
rtibia 40.6414
rfoot -3.07366 -0.0535138
rtoes -19.0808
lfemur -52.8412 11.7123 -35.7423
ltibia 37.1809
lfoot -8.36715 3.7809
ltoes -17.9001
1958
root 0.793602 17.294 -1.42127 27.1607 -17.447 7.92676
lowerback 15.5604 -2.74747 2.15846
upperback 11.1584 -3.54517 8.32284
thorax 3.71708 -2.06811 8.145
lowerneck 10.9909 9.56282 -3.04396
upperneck 14.1785 12.3181 -3.50822
head 2.81515 5.7839 -0.736364
rclavicle 6.99722e-014 -1.35174e-014
rhumerus 18.2959 6.81822 -73.0528
rradius 32.366
rwrist 31.6541
rhand -4.10116 8.96146
rfingers 7.12502
rthumb 21.6568 -19.8473
lclavicle 6.99722e-014 -1.35174e-014
lhumerus 82.4229 -29.1713 33.102
lradius 27.6459
lwrist -7.89073
lhand 4.04187 20.081
lfingers 7.12502
lthumb 29.4557 47.7655
rfemur -61.6384 -1.868 9.41313
rtibia 40.7092
rfoot -3.07707 -0.107785
rtoes -18.2688
lfemur -52.9228 11.7537 -35.8612
ltibia 37.2581
lfoot -8.42765 3.79201
ltoes -17.4471
1959
root 0.796701 17.2912 -1.42052 27.188 -17.507 8.03731
lowerback 15.5257 -2.74477 2.19408
upperback 11.1523 -3.53917 8.2971
thorax 3.72281 -2.06109 8.0927
lowerneck 11.0663 9.51504 -2.87025
upperneck 14.1159 12.2755 -3.63804
head 2.80164 5.77195 -0.808449
rclavicle -1.74931e-014 3.81667e-014
rhumerus 18.3176 6.7334 -73.0215
rradius 32.3679
rwrist 31.7236
rhand -4.43943 9.22371
rfingers 7.12502
rthumb 21.3319 -19.6222
lclavicle -1.74931e-014 3.81667e-014
lhumerus 82.7557 -29.3754 32.3658
lradius 27.897
lwrist -7.71947
lhand 4.08193 20.2875
lfingers 7.12502
lthumb 29.4939 47.9653
rfemur -61.7651 -1.9286 9.29812
rtibia 40.7939
rfoot -3.09554 -0.0770826
rtoes -17.114
lfemur -53.0206 11.7513 -36.0393
ltibia 37.3347
lfoot -8.43173 3.83363
ltoes -18.2267
1960
root 0.799656 17.2857 -1.41808 27.2185 -17.5116 8.01009
lowerback 15.5097 -2.76308 2.41379
upperback 11.1698 -3.5407 8.25768
thorax 3.73303 -2.0466 7.92059
lowerneck 11.0385 9.46154 -2.65805
upperneck 14.1678 12.2221 -3.58854
head 2.83279 5.75368 -0.822458
rclavicle 3.18055e-015 -3.73715e-014
rhumerus 18.2902 6.63078 -73.0958
rradius 32.5211
rwrist 31.5887
rhand -4.44146 9.21557
rfingers 7.12502
rthumb 21.33 -19.6305
lclavicle 3.18055e-015 -3.73715e-014
lhumerus 83.0737 -29.5947 31.6307
lradius 28.1844
lwrist -7.58563
lhand 4.10014 20.499
lfingers 7.12502
lthumb 29.5113 48.1737
rfemur -61.829 -1.94711 9.32731
rtibia 40.8715
rfoot -3.13116 -0.0369137
rtoes -16.5142
lfemur -53.0982 11.7292 -36.0208
ltibia 37.4153
lfoot -8.43182 3.87487
ltoes -18.6471
1961
root 0.802005 17.2802 -1.41556 27.2293 -17.6214 8.04801
lowerback 15.5276 -2.75522 2.46038
upperback 11.183 -3.52532 8.22117
thorax 3.72979 -2.03454 7.85193
lowerneck 10.9977 9.46836 -2.55814
upperneck 14.1931 12.2323 -3.4823
head 2.84633 5.76326 -0.801942
rclavicle 5.24792e-014 2.38542e-015
rhumerus 18.2752 6.41705 -73.2532
rradius 32.5961
rwrist 31.7396
rhand -4.40565 9.26414
rfingers 7.12502
rthumb 21.3644 -19.5781
lclavicle 5.24792e-014 2.38542e-015
lhumerus 83.3147 -29.7759 30.9635
lradius 28.4101
lwrist -7.28324
lhand 3.84032 20.6107
lfingers 7.12502
lthumb 29.2632 48.3289
rfemur -61.933 -1.93687 9.26808
rtibia 40.954
rfoot -3.1547 0.0508468
rtoes -16.4883
lfemur -53.1737 11.7751 -36.1091
ltibia 37.493
lfoot -8.51245 3.83092
ltoes -17.8561
1962
root 0.804006 17.2788 -1.41515 27.2439 -17.716 8.09166
lowerback 15.5743 -2.73797 2.4796
upperback 11.1894 -3.49808 8.20727
thorax 3.70628 -2.01908 7.82469
lowerneck 11.0172 9.46692 -2.47211
upperneck 14.1575 12.2295 -3.42254
head 2.83139 5.76777 -0.798195
rclavicle -1.90833e-014 -6.83819e-014
rhumerus 18.2847 6.2739 -73.3123
rradius 32.6775
rwrist 31.7083
rhand -4.70842 9.46514
rfingers 7.12502
rthumb 21.0735 -19.4098
lclavicle -1.90833e-014 -6.83819e-014
lhumerus 83.5821 -29.9595 30.3278
lradius 28.624
lwrist -6.93215
lhand 3.63321 20.6103
lfingers 7.12502
lthumb 29.0655 48.3628
rfemur -62.0246 -1.90996 9.19237
rtibia 41.0227
rfoot -3.19561 0.0881054
rtoes -17.0797
lfemur -53.2529 11.8444 -36.2297
ltibia 37.5681
lfoot -8.56908 3.81731
ltoes -17.7073
1963
root 0.80652 17.2744 -1.41425 27.2045 -17.7891 8.16607
lowerback 15.6583 -2.72443 2.5148
upperback 11.2227 -3.47335 8.19277
thorax 3.69251 -2.0046 7.78994
lowerneck 11.1249 9.44531 -2.37671
upperneck 13.9803 12.1997 -3.44065
head 2.75911 5.76372 -0.8278
rclavicle 7.79236e-014 -5.88403e-014
rhumerus 18.3383 6.17268 -73.2774
rradius 32.8132
rwrist 31.4513
rhand -5.04434 9.47326
rfingers 7.12502
rthumb 20.7508 -19.4372
lclavicle 7.79236e-014 -5.88403e-014
lhumerus 83.7654 -30.1047 30.0169
lradius 28.7931
lwrist -6.96798
lhand 3.80409 20.3378
lfingers 7.12502
lthumb 29.2286 48.062
rfemur -62.0555 -1.90425 9.09273
rtibia 41.0726
rfoot -3.19174 0.105996
rtoes -17.9085
lfemur -53.2378 11.8468 -36.3263
ltibia 37.6123
lfoot -8.591 3.86714
ltoes -17.9966
1964
root 0.809326 17.2691 -1.41389 27.2604 -17.8096 8.2052
lowerback 15.6692 -2.72792 2.6829
upperback 11.2221 -3.4568 8.14669
thorax 3.66935 -1.98296 7.64013
lowerneck 11.2537 9.43173 -2.23202
upperneck 13.7839 12.1802 -3.42248
head 2.6775 5.76786 -0.855146
rclavicle -3.65764e-014 -5.56597e-014
rhumerus 18.2894 6.00873 -73.3374
rradius 32.9926
rwrist 31.2043
rhand -4.89018 9.24705
rfingers 7.12502
rthumb 20.8989 -19.6472
lclavicle -3.65764e-014 -5.56597e-014
lhumerus 83.9278 -30.2805 29.7058
lradius 28.9931
lwrist -7.15046
lhand 4.02715 20.0666
lfingers 7.12502
lthumb 29.4416 47.7535
rfemur -62.1529 -1.91409 9.02776
rtibia 41.0931
rfoot -3.15448 0.0786474
rtoes -17.5766
lfemur -53.3033 11.7223 -36.3304
ltibia 37.6267
lfoot -8.54378 4.01378
ltoes -18.0566
1965
root 0.812702 17.2724 -1.41521 27.3437 -17.8465 8.22493
lowerback 15.6658 -2.73446 2.88824
upperback 11.2113 -3.43966 8.07062
thorax 3.63753 -1.9569 7.43487
lowerneck 11.3189 9.40105 -2.0845
upperneck 13.6653 12.1394 -3.34215
head 2.62825 5.75899 -0.858327
rclavicle 1.27222e-014 9.93923e-014
rhumerus 18.185 5.80258 -73.4571
rradius 33.2
rwrist 31.0769
rhand -4.59099 9.05547
rfingers 7.12502
rthumb 21.1863 -19.8068
lclavicle 1.27222e-014 9.93923e-014
lhumerus 84.2559 -30.4648 28.9837
lradius 29.2029
lwrist -6.98353
lhand 3.89148 19.8982
lfingers 7.12502
lthumb 29.3121 47.6079
rfemur -62.256 -1.91105 8.98132
rtibia 41.098
rfoot -3.17436 0.0707178
rtoes -17.1335
lfemur -53.3976 11.7153 -36.4082
ltibia 37.6105
lfoot -8.44263 4.05397
ltoes -18.6393
1966
root 0.815771 17.2748 -1.4163 27.3538 -17.9079 8.28619
lowerback 15.7042 -2.73518 3.01126
upperback 11.2448 -3.42553 7.99232
thorax 3.63837 -1.93878 7.27739
lowerneck 11.3361 9.39341 -1.92712
upperneck 13.5155 12.1367 -3.31146
head 2.58132 5.76917 -0.877321
rclavicle -9.54166e-015 -3.02153e-014
rhumerus 18.1725 5.62174 -73.531
rradius 33.3967
rwrist 31.0239
rhand -4.45952 9.0091
rfingers 7.12502
rthumb 21.3126 -19.839
lclavicle -9.54166e-015 -3.02153e-014
lhumerus 84.6674 -30.6045 28.1098
lradius 29.4159
lwrist -6.68216
lhand 3.51957 19.6794
lfingers 7.12502
lthumb 28.9569 47.4505
rfemur -62.2889 -1.91671 8.90319
rtibia 41.0703
rfoot -3.18986 0.0759679
rtoes -17.5205
lfemur -53.4138 11.8069 -36.5721
ltibia 37.5787
lfoot -8.44741 3.97973
ltoes -18.8682
